<?xml version="1.0" encoding="UTF-8"?>
<svg width="64px" height="44px" viewBox="0 0 64 44" version="1.1" xmlns="http://www.w3.org/2000/svg" xmlns:xlink="http://www.w3.org/1999/xlink">
    <!-- Generator: sketchtool 41.2 (35397) - http://www.bohemiancoding.com/sketch -->
    <title>24D1D2D0-8F10-43DB-ACFE-68F2FD925624</title>
    <desc>Created with sketchtool.</desc>
    <defs></defs>
    <g id="Page-1" stroke="none" stroke-width="1" fill="none" fill-rule="evenodd" opacity="0.688141325">
        <g id="Morpheus-Dashboard" transform="translate(-628.000000, -165.000000)">
            <g id="Imported-Layers" transform="translate(627.000000, 164.000000)">
                <path d="M7.5447619,34.9264286 C6.44704762,32.2457143 6.85180952,29.1825 8.62304762,26.8778571 L19.6260952,12.5742857 C21.1965714,10.53 23.631619,9.35357143 26.1864762,9.35357143 C26.5361905,9.35357143 26.8891429,9.37285714 27.2420952,9.42107143 L45.2232381,11.7257143 C48.1472381,12.0985714 50.6502857,13.995 51.783619,16.6982143 L58.7649524,33.3064286 C58.9851429,33.8335714 59.0984762,34.38 59.2020952,34.9264286 L7.5447619,34.9264286 M33.4624762,2.72892857 C31.7980952,2.72892857 30.1337143,3.14678571 28.6312381,3.9825 L9.64304762,14.5189286 C6.55390476,16.2353571 4.6207619,19.4528571 4.57219048,22.9660714 L4.40704762,34.9264286 L61.9026667,34.9264286 L62.0580952,23.7503571 C62.1066667,20.2403571 60.2641905,16.9682143 57.223619,15.1714286 L38.5333333,4.11428571 C36.9725714,3.19178571 35.2207619,2.72892857 33.4624762,2.72892857" id="Fill-1" fill="#EEEEEE"></path>
                <path d="M26.1864762,9.35357143 C23.631619,9.35357143 21.1965714,10.53 19.6260952,12.5742857 L8.62304762,26.8778571 C6.85180952,29.1825 6.44704762,32.2457143 7.5447619,34.9264286 L59.2020952,34.9264286 C59.0984762,34.38 58.9851429,33.8335714 58.7649524,33.3064286 L51.783619,16.6982143 C50.6502857,13.995 48.1472381,12.0985714 45.2232381,11.7257143 L27.2420952,9.42107143 C26.8891429,9.37285714 26.5361905,9.35357143 26.1864762,9.35357143" id="Fill-2" fill="#E1E1E1"></path>
                <polyline id="Fill-3" fill="#FFFFFF" points="44.3198095 34.1260714 25.875619 2.41071429 8.69752381 12.2528571 21.4329524 34.1485714"></polyline>
                <path d="M21.4329524,34.9521429 L20.7302857,34.5503571 L7.99809524,12.6546429 C7.77466667,12.2721429 7.90742857,11.7803571 8.2927619,11.5585714 L25.467619,1.71321429 C25.8432381,1.49464286 26.3451429,1.62 26.5750476,2.00892857 L45.0224762,33.7210714 C45.2459048,34.1035714 45.1131429,34.5985714 44.7245714,34.8203571 C44.3424762,35.0357143 43.8470476,34.9071429 43.620381,34.5246429 L25.5744762,3.51 L9.80495238,12.5485714 L22.135619,33.7467857 C22.3558095,34.1292857 22.2230476,34.6210714 21.8377143,34.8460714 L21.4329524,34.9521429" id="Fill-4" fill="#4D4C4C"></path>
                <path d="M22.8382857,23.8982143 C22.2198095,23.8982143 21.5980952,23.8210714 20.9860952,23.6571429 C19.1565714,23.1717857 17.6249524,22.005 16.6761905,20.3753571 C15.7306667,18.7457143 15.4780952,16.8460714 15.9702857,15.03 C16.4592381,13.2107143 17.6346667,11.6935714 19.276381,10.7517857 C22.6569524,8.81357143 27.0121905,9.9675 28.968,13.3328571 C29.9135238,14.9592857 30.1660952,16.8589286 29.6771429,18.675 C29.1881905,20.4942857 28.0127619,22.0146429 26.3742857,22.9564286 C25.2798095,23.58 24.0655238,23.8982143 22.8382857,23.8982143 L22.8382857,23.8982143 Z M22.812381,11.4171429 C21.8862857,11.4171429 20.9472381,11.6517857 20.0859048,12.1435714 C17.4695238,13.6414286 16.5693333,16.9746429 18.0815238,19.5717857 C19.5904762,22.1657143 22.951619,23.0592857 25.5615238,21.5614286 C28.1779048,20.0635714 29.0748571,16.7303571 27.5659048,14.1332143 C26.552381,12.3910714 24.7066667,11.4171429 22.812381,11.4171429 L22.812381,11.4171429 Z" id="Fill-5" fill="#4D4C4C"></path>
                <path d="M23.4664762,21.0375 L23.2592381,21.0085714 L19.8333333,20.0989286 C19.3994286,19.9864286 19.143619,19.5428571 19.2601905,19.1153571 C19.3735238,18.6846429 19.8333333,18.4371429 20.2510476,18.5496429 L22.9224762,19.2567857 L24.6192381,13.7796429 C24.752,13.3553571 25.2085714,13.1271429 25.6295238,13.2460714 C26.0569524,13.3778571 26.2965714,13.8278571 26.1670476,14.2521429 L24.240381,20.4685714 C24.1335238,20.8157143 23.8129524,21.0375 23.4664762,21.0375" id="Fill-6" fill="#4D4C4C"></path>
                <path d="M34.4209524,32.7375 L34.2104762,32.7085714 L27.5238095,30.9278571 C27.0899048,30.8153571 26.8340952,30.3717857 26.9506667,29.9442857 C27.064,29.5167857 27.5173333,29.2596429 27.9415238,29.3785714 L34.6281905,31.1560714 C35.0620952,31.2717857 35.3179048,31.7121429 35.2013333,32.1396429 C35.1074286,32.4996429 34.7771429,32.7375 34.4209524,32.7375" id="Fill-7" fill="#4D4C4C"></path>
                <path d="M30.1790476,35.1642857 L29.9718095,35.1385714 C29.5379048,35.0228571 29.2820952,34.5825 29.3986667,34.155 L31.1925714,27.5142857 C31.3059048,27.0867857 31.7592381,26.8360714 32.1801905,26.9485714 C32.6140952,27.0610714 32.8699048,27.5046429 32.7533333,27.9289286 L30.9594286,34.5696429 C30.8655238,34.9296429 30.5384762,35.1642857 30.1790476,35.1642857" id="Fill-8" fill="#4D4C4C"></path>
                <path d="M36.516,34.9682143 L36.108,34.8589286 C35.7226667,34.6339286 35.5931429,34.1421429 35.8165714,33.7596429 C36.0594286,33.3482143 36.244,32.9078571 36.3670476,32.4514286 C36.7459048,31.0467857 36.551619,29.5810714 35.8230476,28.3242857 C35.088,27.0642857 33.9093333,26.1675 32.4942857,25.7882143 C31.0792381,25.4121429 29.6026667,25.605 28.3365714,26.3314286 C27.0704762,27.0610714 26.1638095,28.2310714 25.7849524,29.6357143 C25.4158095,31.0146429 25.6068571,32.4642857 26.3257143,33.7146429 C26.5459048,34.1003571 26.4131429,34.5921429 26.0245714,34.8107143 C25.6327619,35.0292857 25.1438095,34.8975 24.920381,34.5117857 C23.9878095,32.8917857 23.7384762,31.0114286 24.2209524,29.2210714 C24.7131429,27.4017857 25.8853333,25.8846429 27.5302857,24.9428571 C29.1655238,23.9978571 31.0824762,23.7503571 32.912,24.2389286 C34.7415238,24.7242857 36.2731429,25.8910714 37.2219048,27.5207143 C38.1706667,29.1471429 38.42,31.0467857 37.9310476,32.8660714 C37.772381,33.4607143 37.5327619,34.0360714 37.2154286,34.5696429 L36.516,34.9682143" id="Fill-9" fill="#4D4C4C"></path>
                <path d="M64.1110476,35.1642857 L2.22133333,35.1642857 C1.77447619,35.1642857 1.40857143,34.8042857 1.40857143,34.3607143 C1.40857143,33.9203571 1.77447619,33.5571429 2.22133333,33.5571429 L64.1110476,33.5571429 C64.5579048,33.5571429 64.9205714,33.9203571 64.9205714,34.3607143 C64.9205714,34.8042857 64.5579048,35.1642857 64.1110476,35.1642857" id="Fill-10" fill="#4D4C4C"></path>
                <path d="M45.6182857,44.8135714 L20.7108571,44.8135714 C20.2672381,44.8135714 19.9013333,44.4535714 19.9013333,44.01 C19.9013333,43.5696429 20.2672381,43.2064286 20.7108571,43.2064286 L45.6182857,43.2064286 C46.0651429,43.2064286 46.4278095,43.5696429 46.4278095,44.01 C46.4278095,44.4535714 46.0651429,44.8135714 45.6182857,44.8135714" id="Fill-11" fill="#4D4C4C"></path>
            </g>
        </g>
    </g>
</svg>