<?xml version="1.0" encoding="UTF-8"?>
<svg width="45px" height="59px" viewBox="0 0 45 59" version="1.1" xmlns="http://www.w3.org/2000/svg" xmlns:xlink="http://www.w3.org/1999/xlink">
    <!-- Generator: sketchtool 41.2 (35397) - http://www.bohemiancoding.com/sketch -->
    <title>1977CD1E-6F3F-4B90-B98A-4D71E861C64A</title>
    <desc>Created with sketchtool.</desc>
    <defs></defs>
    <g id="Page-1" stroke="none" stroke-width="1" fill="none" fill-rule="evenodd" opacity="0.77501166">
        <g id="Morpheus-Dashboard" transform="translate(-102.000000, -158.000000)">
            <g id="Imported-Layers" transform="translate(100.000000, 156.500000)">
                <polyline id="Fill-1" fill="#FFFFFF" points="3.75085714 40.8338889 8.736 40.8338889 8.736 48.8801111 17.0948571 40.8338889 35.6125714 40.8338889 35.6125714 3.02422222 3.75085714 3.02422222 3.75085714 40.8338889"></polyline>
                <path d="M8.736,49.7412222 L8.4,49.6723333 C8.08114286,49.538 7.87885714,49.228 7.87885714,48.8801111 L7.87885714,41.695 L3.75085714,41.695 C3.27771429,41.695 2.89371429,41.3057778 2.89371429,40.8338889 L2.89371429,3.02422222 C2.89371429,2.54888889 3.27771429,2.16311111 3.75085714,2.16311111 L35.6125714,2.16311111 C36.0822857,2.16311111 36.4697143,2.54888889 36.4697143,3.02422222 L36.4697143,40.8338889 C36.4697143,41.3057778 36.0822857,41.695 35.6125714,41.695 L17.4377143,41.695 L9.32914286,49.5035556 L8.736,49.7412222 M4.608,39.9693333 L8.736,39.9693333 C9.20914286,39.9693333 9.59314286,40.3585556 9.59314286,40.8338889 L9.59314286,46.8651111 L16.5017143,40.2104444 L17.0914286,39.9693333 L34.7554286,39.9693333 L34.7554286,3.88533333 L4.608,3.88533333 L4.608,39.9693333" id="Fill-2" fill="#BCBCBC"></path>
                <path d="M34.7554286,9.77188889 L12.1062857,9.77188889 C11.4034286,9.77188889 10.8308571,10.3436667 10.8308571,11.0532222 L10.8308571,45.6698889 L16.5017143,40.2104444 L17.0914286,39.9693333 L34.7554286,39.9693333 L34.7554286,9.77188889" id="Fill-3" fill="#E6E6E6"></path>
                <polyline id="Fill-4" fill="#BCBCBC" points="35.6125714 9.77188889 34.7554286 9.77188889 34.7554286 39.9693333 17.0914286 39.9693333 16.5017143 40.2104444 10.8308571 45.6698889 10.8308571 46.8616667 17.0948571 40.8338889 35.6125714 40.8338889 35.6125714 9.77188889"></polyline>
                <polyline id="Fill-5" fill="#FFFFFF" points="45.9428571 50.8916667 40.9577143 50.8916667 40.9577143 58.9378889 32.5988571 50.8916667 14.0811429 50.8916667 14.0811429 13.082 45.9428571 13.082 45.9428571 50.8916667"></polyline>
                <path d="M40.9577143,59.799 L40.3645714,59.5613333 L32.256,51.7493333 L14.0811429,51.7493333 C13.6114286,51.7493333 13.224,51.3635556 13.224,50.8882222 L13.224,13.082 C13.224,12.6066667 13.6114286,12.2208889 14.0811429,12.2208889 L45.9428571,12.2208889 C46.416,12.2208889 46.8,12.6066667 46.8,13.082 L46.8,50.8882222 C46.8,51.3635556 46.416,51.7493333 45.9428571,51.7493333 L41.8148571,51.7493333 L41.8148571,58.9378889 C41.8148571,59.2857778 41.6125714,59.5957778 41.2937143,59.7301111 L40.9577143,59.799 L40.9577143,59.799 Z M14.9382857,50.0271111 L32.6022857,50.0271111 L33.1954286,50.2682222 L40.1005714,56.9194444 L40.1005714,50.8882222 C40.1005714,50.4163333 40.488,50.0271111 40.9577143,50.0271111 L45.0857143,50.0271111 L45.0857143,13.9431111 L14.9382857,13.9431111 L14.9382857,50.0271111 L14.9382857,50.0271111 Z" id="Fill-6" fill="#4D4C4C"></path>
                <path d="M22.1382857,27.962 L37.8857143,27.962" id="Fill-7" fill="#FFFFFF"></path>
                <path d="M37.8857143,28.8231111 L22.1382857,28.8231111 C21.6651429,28.8231111 21.2811429,28.4373333 21.2811429,27.962 C21.2811429,27.4901111 21.6651429,27.1008889 22.1382857,27.1008889 L37.8857143,27.1008889 C38.3588571,27.1008889 38.7428571,27.4901111 38.7428571,27.962 C38.7428571,28.4373333 38.3588571,28.8231111 37.8857143,28.8231111" id="Fill-8" fill="#4D4C4C"></path>
                <path d="M22.1382857,31.4098889 L37.8857143,31.4098889" id="Fill-9" fill="#FFFFFF"></path>
                <path d="M37.8857143,32.2675556 L22.1382857,32.2675556 C21.6651429,32.2675556 21.2811429,31.8817778 21.2811429,31.4064444 C21.2811429,30.9345556 21.6651429,30.5453333 22.1382857,30.5453333 L37.8857143,30.5453333 C38.3588571,30.5453333 38.7428571,30.9345556 38.7428571,31.4064444 C38.7428571,31.8817778 38.3588571,32.2675556 37.8857143,32.2675556" id="Fill-10" fill="#4D4C4C"></path>
                <path d="M22.1382857,34.8543333 L37.8857143,34.8543333" id="Fill-11" fill="#FFFFFF"></path>
                <path d="M37.8857143,35.7154444 L22.1382857,35.7154444 C21.6651429,35.7154444 21.2811429,35.3296667 21.2811429,34.8543333 C21.2811429,34.379 21.6651429,33.9932222 22.1382857,33.9932222 L37.8857143,33.9932222 C38.3588571,33.9932222 38.7428571,34.379 38.7428571,34.8543333 C38.7428571,35.3296667 38.3588571,35.7154444 37.8857143,35.7154444" id="Fill-12" fill="#4D4C4C"></path>
                <path d="M22.1382857,38.3022222 L31.3851429,38.3022222" id="Fill-13" fill="#FFFFFF"></path>
                <path d="M31.3851429,39.1633333 L22.1382857,39.1633333 C21.6651429,39.1633333 21.2811429,38.7775556 21.2811429,38.3022222 C21.2811429,37.8268889 21.6651429,37.4411111 22.1382857,37.4411111 L31.3851429,37.4411111 C31.8582857,37.4411111 32.2422857,37.8268889 32.2422857,38.3022222 C32.2422857,38.7775556 31.8582857,39.1633333 31.3851429,39.1633333" id="Fill-14" fill="#4D4C4C"></path>
                <path d="M19.8822857,21.3073333 L19.9885714,21.3073333 C20.424,21.3073333 20.7737143,21.4313333 21.024,21.6827778 C21.2742857,21.9376667 21.4011429,22.2545556 21.4011429,22.6334444 C21.4011429,23.0123333 21.2742857,23.3292222 21.024,23.5841111 C20.7737143,23.839 20.4342857,23.9664444 20.0057143,23.9664444 C19.5531429,23.9664444 19.2,23.839 18.9497143,23.5841111 C18.6994286,23.3292222 18.5725714,23.0123333 18.5725714,22.6334444 L18.5725714,22.5645556 C18.5725714,21.0386667 19.2,19.9536667 20.4582857,19.3164444 L20.9314286,20.1706667 C20.4205714,20.367 20.0708571,20.7458889 19.8822857,21.3073333 L19.8822857,21.3073333 Z M23.3828571,21.3073333 L23.4857143,21.3073333 C23.9245714,21.3073333 24.2742857,21.4313333 24.5211429,21.6827778 C24.7714286,21.9376667 24.8982857,22.2545556 24.8982857,22.6334444 C24.8982857,23.0123333 24.7714286,23.3292222 24.5211429,23.5841111 C24.2742857,23.839 23.9348571,23.9664444 23.5028571,23.9664444 C23.0502857,23.9664444 22.6971429,23.839 22.4468571,23.5841111 C22.1965714,23.3292222 22.0697143,23.0123333 22.0697143,22.6334444 L22.0697143,22.5645556 C22.0697143,21.0386667 22.6971429,19.9536667 23.9554286,19.3164444 L24.4285714,20.1706667 C23.9177143,20.367 23.5714286,20.7458889 23.3828571,21.3073333 L23.3828571,21.3073333 Z" id="Fill-15" fill="#4D4C4C"></path>
                <path d="M37.1314286,42.4837778 L37.0251429,42.4837778 C36.5862857,42.4837778 36.24,42.3597778 35.9897143,42.1048889 C35.7394286,41.8534444 35.6125714,41.5365556 35.6125714,41.1576667 C35.6125714,40.7787778 35.7394286,40.4618889 35.9897143,40.207 C36.24,39.9521111 36.5794286,39.8246667 37.008,39.8246667 C37.4605714,39.8246667 37.8137143,39.9521111 38.064,40.207 C38.3142857,40.4618889 38.4411429,40.7787778 38.4411429,41.1576667 L38.4411429,41.2265556 C38.4411429,42.7524444 37.8137143,43.8374444 36.5554286,44.4746667 L36.0822857,43.6204444 C36.5931429,43.4241111 36.9428571,43.0452222 37.1314286,42.4837778 L37.1314286,42.4837778 Z M40.6285714,42.4837778 L40.5257143,42.4837778 C40.0868571,42.4837778 39.7371429,42.3597778 39.4868571,42.1048889 C39.2365714,41.8534444 39.1097143,41.5365556 39.1097143,41.1576667 C39.1097143,40.7787778 39.2365714,40.4618889 39.4868571,40.207 C39.7371429,39.9521111 40.0765714,39.8246667 40.5051429,39.8246667 C40.9577143,39.8246667 41.3108571,39.9521111 41.5611429,40.207 C41.8114286,40.4618889 41.9382857,40.7787778 41.9382857,41.1576667 L41.9382857,41.2265556 C41.9382857,42.7524444 41.3108571,43.8374444 40.0525714,44.4746667 L39.5794286,43.6204444 C40.0902857,43.4241111 40.44,43.0452222 40.6285714,42.4837778 L40.6285714,42.4837778 Z" id="Fill-16" fill="#4D4C4C"></path>
            </g>
        </g>
    </g>
</svg>