<?xml version="1.0" encoding="UTF-8"?>
<svg width="60px" height="62px" viewBox="0 0 60 62" version="1.1" xmlns="http://www.w3.org/2000/svg" xmlns:xlink="http://www.w3.org/1999/xlink">
    <!-- Generator: sketchtool 41.2 (35397) - http://www.bohemiancoding.com/sketch -->
    <title>EF1F9293-94ED-4850-8668-93A4C3D63CA2</title>
    <desc>Created with sketchtool.</desc>
    <defs></defs>
    <g id="Page-1" stroke="none" stroke-width="1" fill="none" fill-rule="evenodd" opacity="0.726854011">
        <g id="Morpheus-Dashboard" transform="translate(-898.000000, -152.000000)">
            <g id="Imported-Layers" transform="translate(897.500000, 152.013789)">
                <path d="M39.4861111,58.2048611 L21.9270833,58.2048611 L25.9340278,60.5173611 C27.4097222,61.3680556 29.0590278,61.7951389 30.7083333,61.7951389 C32.3576389,61.7951389 34.0034722,61.3680556 35.4791667,60.5173611 L39.4861111,58.2048611 M58.4131944,37.1388889 L49.6284722,52.3472222 L53.6388889,50.03125 C56.59375,48.3263889 58.4131944,45.1736111 58.4131944,41.7638889 L58.4131944,37.1388889 M3,37.1319444 L3,41.7638889 C3,45.1736111 4.81944444,48.3263889 7.77430556,50.03125 L11.7847222,52.3472222 L3,37.1319444 M11.78125,10.2152778 L7.77430556,12.5277778 C4.81944444,14.2326389 3,17.3854167 3,20.7951389 L3,25.4270833 L11.78125,10.2152778 M49.6319444,10.2118056 L58.4131944,25.4236111 L58.4131944,20.7951389 C58.4131944,17.3854167 56.59375,14.2326389 53.6388889,12.5277778 L49.6319444,10.2118056 M30.7083333,0.763888889 C29.0590278,0.763888889 27.4097222,1.19097222 25.9340278,2.04513889 L21.9270833,4.35763889 L39.4861111,4.35763889 L35.4791667,2.04513889 C34.0034722,1.19097222 32.3576389,0.763888889 30.7083333,0.763888889" id="Fill-1" fill="#E6E6E6"></path>
                <path d="M40.2395833,7.82986111 L21.1770833,7.82986111 C18.7048611,7.82986111 16.4027778,9.15972222 15.1631944,11.2986111 L5.63194444,27.8090278 C4.39583333,29.9513889 4.39583333,32.6111111 5.63194444,34.7465278 L15.1631944,51.2604167 C16.4027778,53.4027778 18.7048611,54.7326389 21.1770833,54.7326389 L40.2395833,54.7326389 C42.7118056,54.7326389 45.0138889,53.4027778 46.25,51.2604167 L55.7847222,34.75 C57.0208333,32.6111111 57.0208333,29.9513889 55.7847222,27.8090278 L46.25,11.2986111 C45.0138889,9.15972222 42.7118056,7.82986111 40.2395833,7.82986111" id="Fill-2" fill="#D7D7D7"></path>
                <path d="M49.6284722,52.3472222 L39.4861111,58.2048611 L40.2395833,58.2048611 C43.9479167,58.2048611 47.4027778,56.2083333 49.2534722,52.9965278 L49.6284722,52.3472222 M11.7847222,52.3472222 L12.1597222,52.9965278 C14.0104167,56.2083333 17.4652778,58.2048611 21.1770833,58.2048611 L21.9270833,58.2048611 L11.7847222,52.3472222 M3,25.4270833 L2.62847222,26.0729167 C0.770833333,29.2881944 0.770833333,33.2777778 2.62847222,36.4861111 L3,37.1319444 L3,25.4270833 M58.4131944,25.4236111 L58.4131944,37.1388889 L58.7881944,36.4895833 C60.6458333,33.2777778 60.6458333,29.2881944 58.7881944,26.0729167 L58.4131944,25.4236111 M21.9270833,4.35763889 L21.1770833,4.35763889 C17.4652778,4.35763889 14.0104167,6.35069444 12.1597222,9.5625 L11.78125,10.2152778 L21.9270833,4.35763889 M40.2395833,4.35763889 L39.4861111,4.35763889 L49.6319444,10.2118056 L49.2534722,9.5625 C47.4027778,6.35069444 43.9479167,4.35763889 40.2395833,4.35763889" id="Fill-3" fill="#FFFFFF"></path>
                <path d="M21.1770833,54.7326389 C18.7048611,54.7326389 16.4027778,53.4027778 15.1631944,51.2604167 L5.63194444,34.7465278 C4.39583333,32.6111111 4.39583333,29.9513889 5.63194444,27.8090278 L15.1631944,11.2986111 C16.4027778,9.15972222 18.7048611,7.82986111 21.1770833,7.82986111 L40.2395833,7.82986111 C42.7118056,7.82986111 45.0138889,9.15972222 46.25,11.2986111 L55.7847222,27.8090278 C57.0208333,29.9513889 57.0208333,32.6111111 55.7847222,34.75 L46.25,51.2604167 C45.0138889,53.4027778 42.7118056,54.7326389 40.2395833,54.7326389 L21.1770833,54.7326389 M39.4861111,4.35763889 L21.9270833,4.35763889 L11.78125,10.2152778 L3,25.4270833 L3,37.1319444 L11.7847222,52.3472222 L21.9270833,58.2048611 L39.4861111,58.2048611 L49.6284722,52.3472222 L58.4131944,37.1388889 L58.4131944,25.4236111 L49.6319444,10.2118056 L39.4861111,4.35763889" id="Fill-4" fill="#EFEFEF"></path>
                <path d="M27.0902778,53.4270833 L13.3333333,45.4861111 C11.0972222,44.1944444 9.71875,41.8055556 9.71875,39.2222222 L9.71875,23.3368056 C9.71875,20.7534722 11.0972222,18.3645833 13.3333333,17.0729167 L27.0902778,9.13194444 C29.3298611,7.84027778 32.0868056,7.84027778 34.3229167,9.13194444 L48.0798611,17.0729167 C50.3194444,18.3645833 51.6979167,20.7534722 51.6979167,23.3368056 L51.6979167,39.2222222 C51.6979167,41.8055556 50.3194444,44.1944444 48.0798611,45.4861111 L34.3229167,53.4270833 C32.0868056,54.71875 29.3298611,54.71875 27.0902778,53.4270833" id="Fill-5" fill="#FFFFFF"></path>
                <path d="M30.7083333,55.2638889 C29.3055556,55.2638889 27.90625,54.90625 26.6597222,54.1840278 L12.8993056,46.2361111 C10.4027778,44.7951389 8.85069444,42.1076389 8.85069444,39.2222222 L8.85069444,23.3368056 C8.85069444,20.4513889 10.4027778,17.7604167 12.8993056,16.3194444 L26.6597222,8.37847222 C29.1527778,6.93402778 32.2604167,6.93402778 34.7569444,8.37847222 L48.5173611,16.3194444 C51.0104167,17.7604167 52.5659722,20.4513889 52.5659722,23.3368056 L52.5659722,39.2222222 C52.5659722,42.1076389 51.0104167,44.7951389 48.5173611,46.2361111 L34.7569444,54.1840278 C33.5069444,54.90625 32.1076389,55.2638889 30.7083333,55.2638889 L30.7083333,55.2638889 Z M30.7083333,9.03472222 C29.6076389,9.03472222 28.5069444,9.31597222 27.5277778,9.88541667 L13.7673611,17.8263889 C11.8020833,18.9583333 10.5868056,21.0659722 10.5868056,23.3368056 L10.5868056,39.2222222 C10.5868056,41.4895833 11.8020833,43.6006944 13.7673611,44.7326389 L27.5277778,52.6770833 C29.4861111,53.8159722 31.9270833,53.8159722 33.8888889,52.6770833 L47.6493056,44.7326389 C49.6111111,43.6006944 50.8298611,41.4895833 50.8298611,39.2222222 L50.8298611,23.3368056 C50.8298611,21.0659722 49.6111111,18.9583333 47.6493056,17.8263889 L33.8888889,9.88541667 C32.9097222,9.31597222 31.8055556,9.03472222 30.7083333,9.03472222 L30.7083333,9.03472222 Z" id="Fill-6" fill="#BCBCBC"></path>
                <path d="M40.1805556,21.2569444 C34.6423611,15.71875 25.6666667,15.71875 20.1319444,21.2569444 C14.59375,26.7916667 14.59375,35.7673611 20.1319444,41.3055556 C24.9722222,46.1458333 32.4479167,46.7534722 37.9479167,43.125 L43.2430556,44.4201389 L41.9895833,39.0902778 C45.6284722,33.5868056 45.0277778,26.1041667 40.1805556,21.2569444" id="Fill-7" fill="#FFFFFF"></path>
                <path d="M30.1805556,46.3125 C26.2847222,46.3125 22.4166667,44.8159722 19.5173611,41.9166667 C13.6527778,36.0520833 13.6527778,26.5069444 19.5173611,20.6388889 C25.3854167,14.7673611 34.9270833,14.7743056 40.7916667,20.6388889 C45.7395833,25.5868056 46.6076389,33.3541667 42.9166667,39.25 L44.0833333,44.21875 L43.8506944,45.0381944 L43.0347222,45.2638889 L38.1076389,44.0590278 C35.6701389,45.5729167 32.9166667,46.3125 30.1805556,46.3125 L30.1805556,46.3125 Z M30.15625,17.9791667 C26.7465278,17.9791667 23.3402778,19.2743056 20.7465278,21.8680556 C15.5590278,27.0555556 15.5590278,35.5034722 20.7465278,40.6909722 C25.1909722,45.1354167 32.2222222,45.8611111 37.4722222,42.3993056 L38.15625,42.28125 L42.0694444,43.2395833 L41.1458333,39.2881944 L41.2673611,38.6111111 C44.7361111,33.3645833 44.0208333,26.3229167 39.5659722,21.8680556 C36.9722222,19.2743056 33.5625,17.9791667 30.15625,17.9791667 L30.15625,17.9791667 Z" id="Fill-8" fill="#4D4C4C"></path>
                <path d="M30.5451389,22.9930556 C31.8680556,22.9930556 33.125,23.4375 34.3055556,24.3229167 C35.4895833,25.2118056 36.0798611,26.3888889 36.0798611,27.8541667 C36.0069444,28.8854167 35.7291667,29.7881944 35.25,30.5625 C34.7708333,31.3333333 34,31.8680556 32.9305556,32.1631944 C32.1527778,32.3784722 31.6388889,32.9652778 31.3923611,33.9270833 C31.2118056,34.625 30.6319444,35.1458333 29.9097222,35.1458333 L29.7847222,35.1458333 C28.8263889,35.1458333 28.1145833,34.2604167 28.2951389,33.3194444 C28.4166667,32.7013889 28.6006944,32.1527778 28.8541667,31.6666667 C29.3333333,30.7465278 30.1736111,30.1527778 31.3715278,29.8888889 C32.3819444,29.7118056 32.9027778,28.96875 32.9409722,27.65625 C32.6840278,26.6458333 31.6666667,26.125 29.8923611,26.0868056 C29.0069444,26.0868056 28.2534722,26.2847222 27.6319444,26.6770833 C27.0486111,27.0451389 26.2708333,26.8854167 25.78125,26.3958333 C25.09375,25.7083333 25.21875,24.5486111 26.0416667,24.03125 C26.34375,23.84375 26.6493056,23.6840278 26.9652778,23.5451389 C27.8125,23.1770833 29.0034722,22.9930556 30.5451389,22.9930556 L30.5451389,22.9930556 Z M28.1354167,38.0208333 C28.1354167,38.4618056 28.28125,38.8298611 28.5763889,39.125 C28.8715278,39.4201389 29.2777778,39.5659722 29.7916667,39.5659722 C30.3090278,39.5659722 30.7118056,39.4201389 31.0069444,39.125 C31.3020833,38.8298611 31.4513889,38.4618056 31.4513889,38.0208333 C31.4513889,37.5763889 31.3020833,37.2083333 31.0069444,36.9097222 C30.7118056,36.6111111 30.3020833,36.4618056 29.7708333,36.4618056 C29.2708333,36.4618056 28.8715278,36.6111111 28.5763889,36.9097222 C28.28125,37.2083333 28.1354167,37.5763889 28.1354167,38.0208333 L28.1354167,38.0208333 Z" id="Fill-9" fill="#4D4C4C"></path>
            </g>
        </g>
    </g>
</svg>