<?xml version="1.0" encoding="UTF-8"?>
<svg width="47px" height="42px" viewBox="0 0 47 42" version="1.1" xmlns="http://www.w3.org/2000/svg" xmlns:xlink="http://www.w3.org/1999/xlink">
    <!-- Generator: sketchtool 41.2 (35397) - http://www.bohemiancoding.com/sketch -->
    <title>3B94DA60-EFDA-4F5D-A997-48180198E17E</title>
    <desc>Created with sketchtool.</desc>
    <defs></defs>
    <g id="Page-1" stroke="none" stroke-width="1" fill="none" fill-rule="evenodd">
        <g id="Morpheus-Dashboard" transform="translate(-358.000000, -166.000000)" fill="#818181">
            <g id="Imported-Layers" transform="translate(358.000000, 166.000000)">
                <path d="M30.4970487,41.206789 L16.1613306,41.206789 C15.5831676,41.206789 15.1139339,40.7390403 15.1139339,40.1627069 L15.1139339,38.5203657 C15.1139339,36.9761683 16.2744494,35.6773301 17.8130751,35.4998362 L19.0437662,35.357841 C19.7638514,35.2737924 20.3069266,34.6661366 20.3069266,33.9441538 L20.3069266,33.0117885 C20.3069266,32.3748984 19.8638778,31.8189247 19.2050653,31.6294238 C12.8855975,29.8127209 8.47186794,23.9674271 8.47186794,17.4147677 L8.47186794,1.32702837 C8.47186794,0.750695044 8.94110165,0.282946255 9.5197883,0.282946255 L37.1396384,0.282946255 C37.7178014,0.282946255 38.1870351,0.750695044 38.1870351,1.32702837 L38.1870351,17.4147677 C38.1870351,23.9669051 33.7733055,29.8127209 27.4543614,31.6294238 C26.7945015,31.8189247 26.3514527,32.3748984 26.3514527,33.0117885 L26.3514527,33.9441538 C26.3514527,34.6661366 26.8945279,35.2737924 27.6146131,35.357841 L28.8453042,35.4998362 C30.3839299,35.6773301 31.5444454,36.9761683 31.5444454,38.5203657 L31.5444454,40.1627069 C31.5444454,40.7390403 31.0757354,41.206789 30.4970487,41.206789 L30.4970487,41.206789 Z M17.2087272,39.1186248 L29.4496521,39.1186248 L29.4496521,38.5203657 C29.4496521,38.0364337 29.0862054,37.6297637 28.6038793,37.5739053 L27.3731882,37.4313881 C25.5968034,37.226748 24.2566594,35.726402 24.2566594,33.9441538 L24.2566594,33.0117885 C24.2566594,31.4347024 25.3082457,30.0726973 26.8730563,29.6226979 C32.3017132,28.0623172 36.0922417,23.0423704 36.0922417,17.4147677 L36.0922417,2.3711105 L10.5666613,2.3711105 L10.5666613,17.4147677 C10.5666613,23.0423704 14.3577135,28.0628392 19.785323,29.6226979 C21.3501337,30.0726973 22.4017199,31.4352245 22.4017199,33.0117885 L22.4017199,33.9441538 C22.4017199,35.726402 21.0615759,37.226748 19.2851911,37.4313881 L18.0545,37.5739053 C17.5726976,37.6297637 17.2087272,38.0364337 17.2087272,38.5203657 L17.2087272,39.1186248 L17.2087272,39.1186248 Z" id="Fill-1"></path>
                <path d="M9.04008063,17.4095473 C3.64965369,15.4889583 0.0288034083,10.3640812 0.0288034083,4.65608422 L0.0288034083,1.32702837 C0.0288034083,0.750695044 0.498037115,0.282946255 1.07620007,0.282946255 L9.52293049,0.282946255 L9.52293049,2.3711105 L2.12412044,2.3711105 L2.12412044,4.65608422 C2.12412044,9.48391994 5.1861846,13.8189489 9.74445489,15.4435407 L9.04008063,17.4095473" id="Fill-2"></path>
                <path d="M37.6224883,17.4100694 L36.9175903,15.4430186 C41.4758606,13.8194709 44.5389722,9.48391994 44.5389722,4.65608422 L44.5389722,2.3711105 L37.1396384,2.3711105 L37.1396384,0.282946255 L45.5863688,0.282946255 C46.1645318,0.282946255 46.6337655,0.750695044 46.6337655,1.32702837 L46.6337655,4.65608422 C46.6337655,10.3640812 43.0123915,15.4894803 37.6224883,17.4100694" id="Fill-3"></path>
                <polyline id="Fill-4" points="10.2540134 11.8842647 8.79237132 10.3886171 18.8897989 0.578943536 20.3514409 2.07511321 10.2540134 11.8842647"></polyline>
                <polyline id="Fill-5" points="10.2540134 4.33607305 8.79237132 2.83990337 11.1196867 0.578943536 12.5813288 2.07511321 10.2540134 4.33607305"></polyline>
                <polyline id="Fill-6" points="10.258203 19.4277581 8.78818173 17.939941 26.4572398 0.583119864 27.9277847 2.07093689 10.258203 19.4277581"></polyline>
                <polyline id="Fill-7" points="12.1424696 25.097124 10.6698298 23.6124392 34.0278229 0.584685987 35.5009863 2.06937076 12.1424696 25.097124"></polyline>
                <polyline id="Fill-8" points="15.7324216 29.1178842 14.2582108 27.6347656 36.0655331 6.10109387 37.5392202 7.58473456 15.7324216 29.1178842"></polyline>
                <polyline id="Fill-9" points="20.9191299 31.5448531 19.4454428 30.0612124 36.0655331 13.6498076 37.5392202 15.1329263 20.9191299 31.5448531"></polyline>
                <polyline id="Fill-10" points="29.2255092 30.8129515 27.7596776 29.3209582 35.3721565 21.8891817 36.8379882 23.380653 29.2255092 30.8129515"></polyline>
            </g>
        </g>
    </g>
</svg>