<?xml version="1.0" encoding="UTF-8"?>
<svg width="40px" height="40px" viewBox="0 0 40 40" version="1.1" xmlns="http://www.w3.org/2000/svg" xmlns:xlink="http://www.w3.org/1999/xlink">
    <!-- Generator: Sketch 41 (35326) - http://www.bohemiancoding.com/sketch -->
    <title>morpheus-logo</title>
    <desc>Created with Sketch.</desc>
    <defs></defs>
    <g id="Page-1" stroke="none" stroke-width="1" fill="none" fill-rule="evenodd">
        <path d="M38.030625,11.61 C37.940625,11.41875 37.794375,11.28375 37.670625,11.120625 C38.356875,10.006875 38.851875,8.769375 38.851875,7.36875 C38.851875,3.3075 35.55,0 31.494375,0 C27.433125,0 24.125625,3.3075 24.125625,7.36875 C24.125625,11.424375 27.433125,14.731875 31.494375,14.731875 C32.05125,14.731875 32.54625,14.529375 33.069375,14.41125 C33.80625,16.155 34.216875,18 34.216875,19.92375 C34.216875,27.804375 27.79875,34.216875 19.918125,34.216875 C12.0375,34.216875 5.625,27.804375 5.625,19.92375 C5.625,12.043125 12.0375,5.625 19.918125,5.625 C21.470625,5.625 22.730625,4.370625 22.730625,2.818125 C22.730625,1.26 21.470625,0 19.918125,0 C8.938125,0 0,8.938125 0,19.92375 C0,30.909375 8.938125,39.8475 19.918125,39.8475 C30.90375,39.8475 39.841875,30.909375 39.841875,19.92375 C39.841875,17.02125 39.234375,14.225625 38.030625,11.61 L38.030625,11.61 Z M29.750625,7.36875 C29.750625,6.406875 30.5325,5.625 31.494375,5.625 C32.450625,5.625 33.226875,6.406875 33.226875,7.36875 C33.226875,8.325 32.450625,9.106875 31.494375,9.106875 C30.5325,9.106875 29.750625,8.325 29.750625,7.36875 L29.750625,7.36875 Z" id="morpheus-logo" fill="#3BB1FF"></path>
    </g>
</svg>